# xmcd
#
# Track frame offsets: 
#        150
#        24587
#        48770
#        68087
#        82700
#        107652
#        139035
#        154820
#
# Disc length: 2251 seconds
#
# Revision: 1
# Processed by: cddbd v1.5.2PL0 Copyright (c) Steve Scherf et al.
# Submitted via: ExactAudioCopy v1.3
#
DISCID=5708c908
DTITLE=Big Joe Williams (& Friends) - Have Mercy!
DYEAR=1900
DGENRE=
TTITLE0=Chain Gang Blues
TTITLE1='Bucked and Scorned
TTITLE2=Razor Sharp Blues
TTITLE3=Stool Pigeon Blues
TTITLE4=Brand New Car
TTITLE5=Blues For Gamblers
TTITLE6=Ball of Twine
TTITLE7=Great Gospel Blues (Right On That Shore)
EXTD=with Lightnin' Hopkins, Brownie McGhee, and Sonny Terry
EXTT0=
EXTT1=
EXTT2=
EXTT3=
EXTT4=
EXTT5=
EXTT6=
EXTT7=
PLAYORDER=
